<mxfile host="app.diagrams.net" modified="2023-03-23T16:10:56.976Z" agent="5.0 (Macintosh)" etag="0sQHl3UcjIBOrtt-LL7E" compressed="false" version="21.0.10" type="device">
  <diagram name="Page-1" id="2YBvvXClWsGukQMizWep">
    <mxGraphModel dx="1363" dy="877" grid="1" gridSize="10" guides="1" tooltips="1" connect="1" arrows="1" fold="1" page="1" pageScale="1" pageWidth="2500" pageHeight="2500" math="0" shadow="0">
      <root>
        <mxCell id="0" />
        <mxCell id="1" parent="0" />
        <mxCell id="aM9ryv3xv72pqoxQDRHE-5" value="Repository" style="shape=umlLifeline;perimeter=lifelinePerimeter;whiteSpace=wrap;html=1;container=0;dropTarget=0;collapsible=0;recursiveResize=0;outlineConnect=0;portConstraint=eastwest;newEdgeStyle={&quot;edgeStyle&quot;:&quot;elbowEdgeStyle&quot;,&quot;elbow&quot;:&quot;vertical&quot;,&quot;curved&quot;:0,&quot;rounded&quot;:0};" parent="1" vertex="1">
          <mxGeometry x="740" y="40" width="130" height="1860" as="geometry" />
        </mxCell>
        <mxCell id="fCjNDRdymDhb6TnAWpX7-8" value="Student" style="shape=umlActor;verticalLabelPosition=bottom;verticalAlign=top;html=1;outlineConnect=0;strokeColor=#000000;fontSize=13;" parent="1" vertex="1">
          <mxGeometry x="50" y="40" width="30" height="60" as="geometry" />
        </mxCell>
        <mxCell id="fCjNDRdymDhb6TnAWpX7-12" value="" style="html=1;points=[];perimeter=orthogonalPerimeter;outlineConnect=0;targetShapes=umlLifeline;portConstraint=eastwest;newEdgeStyle={&quot;edgeStyle&quot;:&quot;elbowEdgeStyle&quot;,&quot;elbow&quot;:&quot;vertical&quot;,&quot;curved&quot;:0,&quot;rounded&quot;:0};strokeColor=#3399FF;" parent="1" vertex="1">
          <mxGeometry x="60" y="130" width="10" height="1750" as="geometry" />
        </mxCell>
        <mxCell id="fCjNDRdymDhb6TnAWpX7-27" value="Notation Interface" style="shape=umlLifeline;perimeter=lifelinePerimeter;whiteSpace=wrap;html=1;container=0;dropTarget=0;collapsible=0;recursiveResize=0;outlineConnect=0;portConstraint=eastwest;newEdgeStyle={&quot;edgeStyle&quot;:&quot;elbowEdgeStyle&quot;,&quot;elbow&quot;:&quot;vertical&quot;,&quot;curved&quot;:0,&quot;rounded&quot;:0};" parent="1" vertex="1">
          <mxGeometry x="230" y="40" width="120" height="1860" as="geometry" />
        </mxCell>
        <mxCell id="fCjNDRdymDhb6TnAWpX7-28" value="" style="html=1;points=[];perimeter=orthogonalPerimeter;outlineConnect=0;targetShapes=umlLifeline;portConstraint=eastwest;newEdgeStyle={&quot;edgeStyle&quot;:&quot;elbowEdgeStyle&quot;,&quot;elbow&quot;:&quot;vertical&quot;,&quot;curved&quot;:0,&quot;rounded&quot;:0};strokeColor=#3399FF;" parent="fCjNDRdymDhb6TnAWpX7-27" vertex="1">
          <mxGeometry x="55" y="90" width="10" height="1750" as="geometry" />
        </mxCell>
        <mxCell id="fCjNDRdymDhb6TnAWpX7-34" value="" style="endArrow=classic;html=1;rounded=0;fontSize=13;" parent="1" source="fCjNDRdymDhb6TnAWpX7-12" target="fCjNDRdymDhb6TnAWpX7-28" edge="1">
          <mxGeometry width="50" height="50" relative="1" as="geometry">
            <mxPoint x="170" y="380" as="sourcePoint" />
            <mxPoint x="220" y="330" as="targetPoint" />
            <Array as="points">
              <mxPoint x="140" y="150" />
            </Array>
          </mxGeometry>
        </mxCell>
        <mxCell id="fCjNDRdymDhb6TnAWpX7-38" value="viewOptions(text, page)" style="text;html=1;strokeColor=none;fillColor=none;align=center;verticalAlign=middle;whiteSpace=wrap;rounded=0;fontSize=13;" parent="1" vertex="1">
          <mxGeometry x="58.75" y="130" width="190" height="20" as="geometry" />
        </mxCell>
        <mxCell id="fCjNDRdymDhb6TnAWpX7-42" value="addHighlight(color, text)" style="text;html=1;strokeColor=none;fillColor=none;align=center;verticalAlign=middle;whiteSpace=wrap;rounded=0;fontSize=13;" parent="1" vertex="1">
          <mxGeometry x="70" y="290" width="170" height="20" as="geometry" />
        </mxCell>
        <mxCell id="fCjNDRdymDhb6TnAWpX7-45" value="opt" style="shape=umlFrame;whiteSpace=wrap;html=1;pointerEvents=0;strokeColor=#000000;fontSize=13;width=40;height=20;" parent="1" vertex="1">
          <mxGeometry x="10" y="200" width="330" height="290" as="geometry" />
        </mxCell>
        <mxCell id="fCjNDRdymDhb6TnAWpX7-46" value="[Highlight]" style="text;html=1;strokeColor=none;fillColor=none;align=center;verticalAlign=middle;whiteSpace=wrap;rounded=0;fontSize=13;" parent="1" vertex="1">
          <mxGeometry x="10" y="220" width="70" height="20" as="geometry" />
        </mxCell>
        <mxCell id="fCjNDRdymDhb6TnAWpX7-47" value="" style="endArrow=classic;html=1;rounded=0;fontSize=13;dashed=1;" parent="1" source="fCjNDRdymDhb6TnAWpX7-28" target="fCjNDRdymDhb6TnAWpX7-12" edge="1">
          <mxGeometry width="50" height="50" relative="1" as="geometry">
            <mxPoint x="450" y="400" as="sourcePoint" />
            <mxPoint x="465" y="240" as="targetPoint" />
            <Array as="points">
              <mxPoint x="240" y="180" />
              <mxPoint x="210" y="180" />
              <mxPoint x="160" y="180" />
            </Array>
          </mxGeometry>
        </mxCell>
        <mxCell id="fCjNDRdymDhb6TnAWpX7-48" value="Notation Options" style="text;html=1;strokeColor=none;fillColor=none;align=center;verticalAlign=middle;whiteSpace=wrap;rounded=0;fontSize=13;" parent="1" vertex="1">
          <mxGeometry x="115" y="160" width="115" height="20" as="geometry" />
        </mxCell>
        <mxCell id="fCjNDRdymDhb6TnAWpX7-51" value="" style="endArrow=classic;html=1;rounded=0;fontSize=13;" parent="1" edge="1">
          <mxGeometry width="50" height="50" relative="1" as="geometry">
            <mxPoint x="70" y="310" as="sourcePoint" />
            <mxPoint x="285" y="310" as="targetPoint" />
            <Array as="points">
              <mxPoint x="138.75" y="310" />
              <mxPoint x="203.75" y="310" />
            </Array>
          </mxGeometry>
        </mxCell>
        <mxCell id="fCjNDRdymDhb6TnAWpX7-52" value="" style="endArrow=classic;html=1;rounded=0;fontSize=13;dashed=1;" parent="1" edge="1">
          <mxGeometry width="50" height="50" relative="1" as="geometry">
            <mxPoint x="285" y="340" as="sourcePoint" />
            <mxPoint x="70" y="340" as="targetPoint" />
            <Array as="points">
              <mxPoint x="208" y="340" />
              <mxPoint x="170" y="340" />
              <mxPoint x="128" y="340" />
            </Array>
          </mxGeometry>
        </mxCell>
        <mxCell id="fCjNDRdymDhb6TnAWpX7-53" value="Display Success" style="text;html=1;strokeColor=none;fillColor=none;align=center;verticalAlign=middle;whiteSpace=wrap;rounded=0;fontSize=13;" parent="1" vertex="1">
          <mxGeometry x="101.25" y="320" width="115" height="20" as="geometry" />
        </mxCell>
        <mxCell id="fCjNDRdymDhb6TnAWpX7-55" value="opt" style="shape=umlFrame;whiteSpace=wrap;html=1;pointerEvents=0;strokeColor=#000000;fontSize=13;width=40;height=20;" parent="1" vertex="1">
          <mxGeometry x="30" y="250" width="290" height="110" as="geometry" />
        </mxCell>
        <mxCell id="8WBUeJ8e2ZMxS5DKSKpC-20" value="opt" style="shape=umlFrame;whiteSpace=wrap;html=1;pointerEvents=0;strokeColor=#000000;fontSize=13;width=40;height=20;" parent="1" vertex="1">
          <mxGeometry x="30" y="360" width="290" height="110" as="geometry" />
        </mxCell>
        <mxCell id="8WBUeJ8e2ZMxS5DKSKpC-21" value="removeHighlight(text)" style="text;html=1;strokeColor=none;fillColor=none;align=center;verticalAlign=middle;whiteSpace=wrap;rounded=0;fontSize=13;" parent="1" vertex="1">
          <mxGeometry x="68.75" y="400" width="170" height="20" as="geometry" />
        </mxCell>
        <mxCell id="8WBUeJ8e2ZMxS5DKSKpC-22" value="" style="endArrow=classic;html=1;rounded=0;fontSize=13;" parent="1" edge="1">
          <mxGeometry width="50" height="50" relative="1" as="geometry">
            <mxPoint x="70" y="420" as="sourcePoint" />
            <mxPoint x="285" y="420" as="targetPoint" />
            <Array as="points">
              <mxPoint x="100" y="420" />
              <mxPoint x="130" y="420" />
              <mxPoint x="170" y="420" />
              <mxPoint x="203" y="420" />
            </Array>
          </mxGeometry>
        </mxCell>
        <mxCell id="8WBUeJ8e2ZMxS5DKSKpC-23" value="" style="endArrow=classic;html=1;rounded=0;fontSize=13;dashed=1;" parent="1" edge="1">
          <mxGeometry width="50" height="50" relative="1" as="geometry">
            <mxPoint x="285" y="450" as="sourcePoint" />
            <mxPoint x="70" y="450" as="targetPoint" />
            <Array as="points">
              <mxPoint x="206" y="450" />
              <mxPoint x="170" y="450" />
              <mxPoint x="126" y="450" />
            </Array>
          </mxGeometry>
        </mxCell>
        <mxCell id="8WBUeJ8e2ZMxS5DKSKpC-24" value="Display Success" style="text;html=1;strokeColor=none;fillColor=none;align=center;verticalAlign=middle;whiteSpace=wrap;rounded=0;fontSize=13;" parent="1" vertex="1">
          <mxGeometry x="113.75" y="430" width="106.25" height="20" as="geometry" />
        </mxCell>
        <mxCell id="8WBUeJ8e2ZMxS5DKSKpC-49" value="addBookmark(text)" style="text;html=1;strokeColor=none;fillColor=none;align=center;verticalAlign=middle;whiteSpace=wrap;rounded=0;fontSize=13;" parent="1" vertex="1">
          <mxGeometry x="70" y="600" width="170" height="20" as="geometry" />
        </mxCell>
        <mxCell id="8WBUeJ8e2ZMxS5DKSKpC-50" value="opt" style="shape=umlFrame;whiteSpace=wrap;html=1;pointerEvents=0;strokeColor=#000000;fontSize=13;width=40;height=20;" parent="1" vertex="1">
          <mxGeometry x="9.38" y="510" width="330" height="290" as="geometry" />
        </mxCell>
        <mxCell id="8WBUeJ8e2ZMxS5DKSKpC-51" value="[Bookmark]" style="text;html=1;strokeColor=none;fillColor=none;align=center;verticalAlign=middle;whiteSpace=wrap;rounded=0;fontSize=13;" parent="1" vertex="1">
          <mxGeometry x="9.38" y="530" width="80" height="20" as="geometry" />
        </mxCell>
        <mxCell id="8WBUeJ8e2ZMxS5DKSKpC-52" value="" style="endArrow=classic;html=1;rounded=0;fontSize=13;" parent="1" edge="1">
          <mxGeometry width="50" height="50" relative="1" as="geometry">
            <mxPoint x="70" y="620" as="sourcePoint" />
            <mxPoint x="285" y="620" as="targetPoint" />
            <Array as="points">
              <mxPoint x="138.75" y="620" />
              <mxPoint x="203.75" y="620" />
            </Array>
          </mxGeometry>
        </mxCell>
        <mxCell id="8WBUeJ8e2ZMxS5DKSKpC-53" value="" style="endArrow=classic;html=1;rounded=0;fontSize=13;dashed=1;" parent="1" edge="1">
          <mxGeometry width="50" height="50" relative="1" as="geometry">
            <mxPoint x="285" y="650" as="sourcePoint" />
            <mxPoint x="70" y="650" as="targetPoint" />
            <Array as="points">
              <mxPoint x="208" y="650" />
              <mxPoint x="170" y="650" />
              <mxPoint x="128" y="650" />
            </Array>
          </mxGeometry>
        </mxCell>
        <mxCell id="8WBUeJ8e2ZMxS5DKSKpC-54" value="Display Success" style="text;html=1;strokeColor=none;fillColor=none;align=center;verticalAlign=middle;whiteSpace=wrap;rounded=0;fontSize=13;" parent="1" vertex="1">
          <mxGeometry x="101.25" y="630" width="115" height="20" as="geometry" />
        </mxCell>
        <mxCell id="8WBUeJ8e2ZMxS5DKSKpC-55" value="opt" style="shape=umlFrame;whiteSpace=wrap;html=1;pointerEvents=0;strokeColor=#000000;fontSize=13;width=40;height=20;" parent="1" vertex="1">
          <mxGeometry x="29.38" y="560" width="290" height="110" as="geometry" />
        </mxCell>
        <mxCell id="8WBUeJ8e2ZMxS5DKSKpC-56" value="opt" style="shape=umlFrame;whiteSpace=wrap;html=1;pointerEvents=0;strokeColor=#000000;fontSize=13;width=40;height=20;" parent="1" vertex="1">
          <mxGeometry x="29.38" y="670" width="290" height="110" as="geometry" />
        </mxCell>
        <mxCell id="8WBUeJ8e2ZMxS5DKSKpC-57" value="removeBookmark(text)" style="text;html=1;strokeColor=none;fillColor=none;align=center;verticalAlign=middle;whiteSpace=wrap;rounded=0;fontSize=13;" parent="1" vertex="1">
          <mxGeometry x="68.13" y="710" width="170" height="20" as="geometry" />
        </mxCell>
        <mxCell id="8WBUeJ8e2ZMxS5DKSKpC-58" value="" style="endArrow=classic;html=1;rounded=0;fontSize=13;" parent="1" edge="1">
          <mxGeometry width="50" height="50" relative="1" as="geometry">
            <mxPoint x="69.38" y="730" as="sourcePoint" />
            <mxPoint x="284.38" y="730" as="targetPoint" />
            <Array as="points">
              <mxPoint x="99.38" y="730" />
              <mxPoint x="129.38" y="730" />
              <mxPoint x="169.38" y="730" />
              <mxPoint x="202.38" y="730" />
            </Array>
          </mxGeometry>
        </mxCell>
        <mxCell id="8WBUeJ8e2ZMxS5DKSKpC-59" value="" style="endArrow=classic;html=1;rounded=0;fontSize=13;dashed=1;" parent="1" edge="1">
          <mxGeometry width="50" height="50" relative="1" as="geometry">
            <mxPoint x="284.38" y="760" as="sourcePoint" />
            <mxPoint x="69.38" y="760" as="targetPoint" />
            <Array as="points">
              <mxPoint x="205.38" y="760" />
              <mxPoint x="169.38" y="760" />
              <mxPoint x="125.38" y="760" />
            </Array>
          </mxGeometry>
        </mxCell>
        <mxCell id="8WBUeJ8e2ZMxS5DKSKpC-60" value="Display Success" style="text;html=1;strokeColor=none;fillColor=none;align=center;verticalAlign=middle;whiteSpace=wrap;rounded=0;fontSize=13;" parent="1" vertex="1">
          <mxGeometry x="113.13" y="740" width="106.25" height="20" as="geometry" />
        </mxCell>
        <mxCell id="8WBUeJ8e2ZMxS5DKSKpC-61" value="addTextNote(noteText, page)" style="text;html=1;strokeColor=none;fillColor=none;align=center;verticalAlign=middle;whiteSpace=wrap;rounded=0;fontSize=13;" parent="1" vertex="1">
          <mxGeometry x="87.5" y="910" width="170" height="20" as="geometry" />
        </mxCell>
        <mxCell id="8WBUeJ8e2ZMxS5DKSKpC-62" value="opt" style="shape=umlFrame;whiteSpace=wrap;html=1;pointerEvents=0;strokeColor=#000000;fontSize=13;width=40;height=20;" parent="1" vertex="1">
          <mxGeometry x="10" y="820" width="330" height="400" as="geometry" />
        </mxCell>
        <mxCell id="8WBUeJ8e2ZMxS5DKSKpC-63" value="[Text Note]" style="text;html=1;strokeColor=none;fillColor=none;align=center;verticalAlign=middle;whiteSpace=wrap;rounded=0;fontSize=13;" parent="1" vertex="1">
          <mxGeometry x="10" y="840" width="80" height="20" as="geometry" />
        </mxCell>
        <mxCell id="8WBUeJ8e2ZMxS5DKSKpC-64" value="" style="endArrow=classic;html=1;rounded=0;fontSize=13;" parent="1" edge="1">
          <mxGeometry width="50" height="50" relative="1" as="geometry">
            <mxPoint x="70" y="930" as="sourcePoint" />
            <mxPoint x="285" y="930" as="targetPoint" />
            <Array as="points">
              <mxPoint x="138.75" y="930" />
              <mxPoint x="203.75" y="930" />
            </Array>
          </mxGeometry>
        </mxCell>
        <mxCell id="8WBUeJ8e2ZMxS5DKSKpC-65" value="" style="endArrow=classic;html=1;rounded=0;fontSize=13;dashed=1;" parent="1" edge="1">
          <mxGeometry width="50" height="50" relative="1" as="geometry">
            <mxPoint x="285" y="960" as="sourcePoint" />
            <mxPoint x="70" y="960" as="targetPoint" />
            <Array as="points">
              <mxPoint x="208" y="960" />
              <mxPoint x="170" y="960" />
              <mxPoint x="128" y="960" />
            </Array>
          </mxGeometry>
        </mxCell>
        <mxCell id="8WBUeJ8e2ZMxS5DKSKpC-66" value="Display Success" style="text;html=1;strokeColor=none;fillColor=none;align=center;verticalAlign=middle;whiteSpace=wrap;rounded=0;fontSize=13;" parent="1" vertex="1">
          <mxGeometry x="101.25" y="940" width="115" height="20" as="geometry" />
        </mxCell>
        <mxCell id="8WBUeJ8e2ZMxS5DKSKpC-67" value="opt" style="shape=umlFrame;whiteSpace=wrap;html=1;pointerEvents=0;strokeColor=#000000;fontSize=13;width=40;height=20;" parent="1" vertex="1">
          <mxGeometry x="30" y="870" width="290" height="110" as="geometry" />
        </mxCell>
        <mxCell id="8WBUeJ8e2ZMxS5DKSKpC-68" value="opt" style="shape=umlFrame;whiteSpace=wrap;html=1;pointerEvents=0;strokeColor=#000000;fontSize=13;width=40;height=20;" parent="1" vertex="1">
          <mxGeometry x="30" y="980" width="290" height="110" as="geometry" />
        </mxCell>
        <mxCell id="8WBUeJ8e2ZMxS5DKSKpC-69" value="removeTextNode(noteText, page)" style="text;html=1;strokeColor=none;fillColor=none;align=center;verticalAlign=middle;whiteSpace=wrap;rounded=0;fontSize=13;" parent="1" vertex="1">
          <mxGeometry x="70" y="1020" width="211.25" height="20" as="geometry" />
        </mxCell>
        <mxCell id="8WBUeJ8e2ZMxS5DKSKpC-70" value="" style="endArrow=classic;html=1;rounded=0;fontSize=13;" parent="1" edge="1">
          <mxGeometry width="50" height="50" relative="1" as="geometry">
            <mxPoint x="71.25" y="1040" as="sourcePoint" />
            <mxPoint x="286.25" y="1040" as="targetPoint" />
            <Array as="points">
              <mxPoint x="101.25" y="1040" />
              <mxPoint x="131.25" y="1040" />
              <mxPoint x="171.25" y="1040" />
              <mxPoint x="204.25" y="1040" />
            </Array>
          </mxGeometry>
        </mxCell>
        <mxCell id="8WBUeJ8e2ZMxS5DKSKpC-71" value="" style="endArrow=classic;html=1;rounded=0;fontSize=13;dashed=1;" parent="1" source="fCjNDRdymDhb6TnAWpX7-28" edge="1">
          <mxGeometry width="50" height="50" relative="1" as="geometry">
            <mxPoint x="271.25" y="1070" as="sourcePoint" />
            <mxPoint x="71.25" y="1070" as="targetPoint" />
            <Array as="points">
              <mxPoint x="207.25" y="1070" />
              <mxPoint x="171.25" y="1070" />
              <mxPoint x="127.25" y="1070" />
            </Array>
          </mxGeometry>
        </mxCell>
        <mxCell id="8WBUeJ8e2ZMxS5DKSKpC-72" value="Display Success" style="text;html=1;strokeColor=none;fillColor=none;align=center;verticalAlign=middle;whiteSpace=wrap;rounded=0;fontSize=13;" parent="1" vertex="1">
          <mxGeometry x="115" y="1050" width="106.25" height="20" as="geometry" />
        </mxCell>
        <mxCell id="8WBUeJ8e2ZMxS5DKSKpC-74" value="opt" style="shape=umlFrame;whiteSpace=wrap;html=1;pointerEvents=0;strokeColor=#000000;fontSize=13;width=40;height=20;" parent="1" vertex="1">
          <mxGeometry x="30" y="1090" width="290" height="110" as="geometry" />
        </mxCell>
        <mxCell id="8WBUeJ8e2ZMxS5DKSKpC-75" value="editTextNote(noteText, page)" style="text;html=1;strokeColor=none;fillColor=none;align=center;verticalAlign=middle;whiteSpace=wrap;rounded=0;fontSize=13;" parent="1" vertex="1">
          <mxGeometry x="89.99999999999999" y="1130" width="170" height="20" as="geometry" />
        </mxCell>
        <mxCell id="8WBUeJ8e2ZMxS5DKSKpC-76" value="" style="endArrow=classic;html=1;rounded=0;fontSize=13;" parent="1" edge="1">
          <mxGeometry width="50" height="50" relative="1" as="geometry">
            <mxPoint x="69.99999999999999" y="1150" as="sourcePoint" />
            <mxPoint x="285" y="1150" as="targetPoint" />
            <Array as="points">
              <mxPoint x="102.99999999999999" y="1150" />
              <mxPoint x="180" y="1150" />
              <mxPoint x="250" y="1150" />
            </Array>
          </mxGeometry>
        </mxCell>
        <mxCell id="8WBUeJ8e2ZMxS5DKSKpC-77" value="" style="endArrow=classic;html=1;rounded=0;fontSize=13;dashed=1;" parent="1" edge="1">
          <mxGeometry width="50" height="50" relative="1" as="geometry">
            <mxPoint x="285" y="1180" as="sourcePoint" />
            <mxPoint x="69.99999999999999" y="1180" as="targetPoint" />
            <Array as="points">
              <mxPoint x="210" y="1180" />
              <mxPoint x="129" y="1180" />
            </Array>
          </mxGeometry>
        </mxCell>
        <mxCell id="8WBUeJ8e2ZMxS5DKSKpC-78" value="Display Success" style="text;html=1;strokeColor=none;fillColor=none;align=center;verticalAlign=middle;whiteSpace=wrap;rounded=0;fontSize=13;" parent="1" vertex="1">
          <mxGeometry x="114.99999999999999" y="1160" width="106.25" height="20" as="geometry" />
        </mxCell>
        <mxCell id="8WBUeJ8e2ZMxS5DKSKpC-83" value="Library API" style="shape=umlLifeline;perimeter=lifelinePerimeter;whiteSpace=wrap;html=1;container=0;dropTarget=0;collapsible=0;recursiveResize=0;outlineConnect=0;portConstraint=eastwest;newEdgeStyle={&quot;edgeStyle&quot;:&quot;elbowEdgeStyle&quot;,&quot;elbow&quot;:&quot;vertical&quot;,&quot;curved&quot;:0,&quot;rounded&quot;:0};" parent="1" vertex="1">
          <mxGeometry x="520" y="40" width="130" height="1860" as="geometry" />
        </mxCell>
        <mxCell id="8WBUeJ8e2ZMxS5DKSKpC-84" value="" style="html=1;points=[];perimeter=orthogonalPerimeter;outlineConnect=0;targetShapes=umlLifeline;portConstraint=eastwest;newEdgeStyle={&quot;edgeStyle&quot;:&quot;elbowEdgeStyle&quot;,&quot;elbow&quot;:&quot;vertical&quot;,&quot;curved&quot;:0,&quot;rounded&quot;:0};strokeColor=#3399FF;" parent="8WBUeJ8e2ZMxS5DKSKpC-83" vertex="1">
          <mxGeometry x="60" y="1220" width="10" height="620" as="geometry" />
        </mxCell>
        <mxCell id="9-Fp5aaXSkY4-ATHUYzR-1" value="[Add]" style="text;html=1;strokeColor=none;fillColor=none;align=center;verticalAlign=middle;whiteSpace=wrap;rounded=0;fontSize=13;" parent="1" vertex="1">
          <mxGeometry x="30" y="270" width="40" height="20" as="geometry" />
        </mxCell>
        <mxCell id="9-Fp5aaXSkY4-ATHUYzR-3" value="[Delete]" style="text;html=1;strokeColor=none;fillColor=none;align=center;verticalAlign=middle;whiteSpace=wrap;rounded=0;fontSize=13;" parent="1" vertex="1">
          <mxGeometry x="30" y="380" width="60" height="20" as="geometry" />
        </mxCell>
        <mxCell id="9-Fp5aaXSkY4-ATHUYzR-4" value="[Add]" style="text;html=1;strokeColor=none;fillColor=none;align=center;verticalAlign=middle;whiteSpace=wrap;rounded=0;fontSize=13;" parent="1" vertex="1">
          <mxGeometry x="29.38" y="580" width="50.62" height="20" as="geometry" />
        </mxCell>
        <mxCell id="9-Fp5aaXSkY4-ATHUYzR-5" value="[Add]" style="text;html=1;strokeColor=none;fillColor=none;align=center;verticalAlign=middle;whiteSpace=wrap;rounded=0;fontSize=13;" parent="1" vertex="1">
          <mxGeometry x="30" y="890" width="50" height="20" as="geometry" />
        </mxCell>
        <mxCell id="9-Fp5aaXSkY4-ATHUYzR-6" value="[Delete]" style="text;html=1;strokeColor=none;fillColor=none;align=center;verticalAlign=middle;whiteSpace=wrap;rounded=0;fontSize=13;" parent="1" vertex="1">
          <mxGeometry x="29.38" y="690" width="60" height="20" as="geometry" />
        </mxCell>
        <mxCell id="9-Fp5aaXSkY4-ATHUYzR-7" value="[Delete]" style="text;html=1;strokeColor=none;fillColor=none;align=center;verticalAlign=middle;whiteSpace=wrap;rounded=0;fontSize=13;" parent="1" vertex="1">
          <mxGeometry x="29.38" y="1000" width="60.62" height="20" as="geometry" />
        </mxCell>
        <mxCell id="9-Fp5aaXSkY4-ATHUYzR-9" value="[Edit]" style="text;html=1;strokeColor=none;fillColor=none;align=center;verticalAlign=middle;whiteSpace=wrap;rounded=0;fontSize=13;" parent="1" vertex="1">
          <mxGeometry x="28.759999999999998" y="1110" width="42.5" height="20" as="geometry" />
        </mxCell>
        <mxCell id="aM9ryv3xv72pqoxQDRHE-6" value="" style="html=1;points=[];perimeter=orthogonalPerimeter;outlineConnect=0;targetShapes=umlLifeline;portConstraint=eastwest;newEdgeStyle={&quot;edgeStyle&quot;:&quot;elbowEdgeStyle&quot;,&quot;elbow&quot;:&quot;vertical&quot;,&quot;curved&quot;:0,&quot;rounded&quot;:0};strokeColor=#3399FF;" parent="1" vertex="1">
          <mxGeometry x="800" y="1290" width="10" height="390" as="geometry" />
        </mxCell>
        <mxCell id="8WBUeJ8e2ZMxS5DKSKpC-79" value="" style="endArrow=classic;html=1;rounded=0;" parent="1" edge="1">
          <mxGeometry width="50" height="50" relative="1" as="geometry">
            <mxPoint x="70" y="1260" as="sourcePoint" />
            <mxPoint x="285" y="1260" as="targetPoint" />
            <Array as="points">
              <mxPoint x="180" y="1260" />
            </Array>
          </mxGeometry>
        </mxCell>
        <mxCell id="8WBUeJ8e2ZMxS5DKSKpC-80" value="saveNotation()" style="text;html=1;strokeColor=none;fillColor=none;align=center;verticalAlign=middle;whiteSpace=wrap;rounded=0;" parent="1" vertex="1">
          <mxGeometry x="80" y="1240" width="83.12" height="20" as="geometry" />
        </mxCell>
        <mxCell id="8WBUeJ8e2ZMxS5DKSKpC-81" value="" style="endArrow=classic;html=1;rounded=0;" parent="1" edge="1">
          <mxGeometry width="50" height="50" relative="1" as="geometry">
            <mxPoint x="295" y="1290" as="sourcePoint" />
            <mxPoint x="580" y="1290" as="targetPoint" />
            <Array as="points">
              <mxPoint x="410" y="1290" />
            </Array>
          </mxGeometry>
        </mxCell>
        <mxCell id="8WBUeJ8e2ZMxS5DKSKpC-82" value="updateCollection(studentID, bookID, collectionID) " style="text;html=1;strokeColor=none;fillColor=none;align=center;verticalAlign=middle;whiteSpace=wrap;rounded=0;" parent="1" vertex="1">
          <mxGeometry x="300" y="1270" width="280" height="20" as="geometry" />
        </mxCell>
        <mxCell id="8WBUeJ8e2ZMxS5DKSKpC-87" value="" style="endArrow=classic;html=1;rounded=0;" parent="1" edge="1">
          <mxGeometry width="50" height="50" relative="1" as="geometry">
            <mxPoint x="590" y="1310" as="sourcePoint" />
            <mxPoint x="800" y="1310" as="targetPoint" />
            <Array as="points">
              <mxPoint x="750" y="1310" />
            </Array>
          </mxGeometry>
        </mxCell>
        <mxCell id="8WBUeJ8e2ZMxS5DKSKpC-86" value="saveUpdate(bookID, collectionID) " style="text;html=1;strokeColor=none;fillColor=none;align=center;verticalAlign=middle;whiteSpace=wrap;rounded=0;" parent="1" vertex="1">
          <mxGeometry x="590" y="1290" width="200" height="20" as="geometry" />
        </mxCell>
        <mxCell id="8WBUeJ8e2ZMxS5DKSKpC-89" value="alt" style="shape=umlFrame;whiteSpace=wrap;html=1;pointerEvents=0;strokeColor=#000000;fontSize=13;width=40;height=20;" parent="1" vertex="1">
          <mxGeometry x="10" y="1360" width="600" height="100" as="geometry" />
        </mxCell>
        <mxCell id="8WBUeJ8e2ZMxS5DKSKpC-90" value="confirmUpdate()" style="text;html=1;strokeColor=none;fillColor=none;align=center;verticalAlign=middle;whiteSpace=wrap;rounded=0;fontSize=13;" parent="1" vertex="1">
          <mxGeometry x="410" y="1400" width="170" height="20" as="geometry" />
        </mxCell>
        <mxCell id="8WBUeJ8e2ZMxS5DKSKpC-91" value="" style="endArrow=classic;html=1;rounded=0;fontSize=13;" parent="1" edge="1">
          <mxGeometry width="50" height="50" relative="1" as="geometry">
            <mxPoint x="580" y="1420" as="sourcePoint" />
            <mxPoint x="295" y="1420" as="targetPoint" />
            <Array as="points">
              <mxPoint x="440" y="1420" />
            </Array>
          </mxGeometry>
        </mxCell>
        <mxCell id="8WBUeJ8e2ZMxS5DKSKpC-92" value="" style="endArrow=classic;html=1;rounded=0;fontSize=13;dashed=1;" parent="1" edge="1">
          <mxGeometry width="50" height="50" relative="1" as="geometry">
            <mxPoint x="285" y="1440" as="sourcePoint" />
            <mxPoint x="70" y="1440" as="targetPoint" />
            <Array as="points">
              <mxPoint x="211" y="1440" />
              <mxPoint x="130" y="1440" />
            </Array>
          </mxGeometry>
        </mxCell>
        <mxCell id="8WBUeJ8e2ZMxS5DKSKpC-93" value="Display Success" style="text;html=1;strokeColor=none;fillColor=none;align=center;verticalAlign=middle;whiteSpace=wrap;rounded=0;fontSize=13;" parent="1" vertex="1">
          <mxGeometry x="115" y="1420" width="106.25" height="20" as="geometry" />
        </mxCell>
        <mxCell id="8WBUeJ8e2ZMxS5DKSKpC-94" value="" style="endArrow=classic;html=1;rounded=0;dashed=1;" parent="1" source="aM9ryv3xv72pqoxQDRHE-6" edge="1">
          <mxGeometry width="50" height="50" relative="1" as="geometry">
            <mxPoint x="460" y="1430" as="sourcePoint" />
            <mxPoint x="590" y="1340" as="targetPoint" />
            <Array as="points">
              <mxPoint x="700" y="1340" />
            </Array>
          </mxGeometry>
        </mxCell>
        <mxCell id="8WBUeJ8e2ZMxS5DKSKpC-95" value="Result" style="text;html=1;strokeColor=none;fillColor=none;align=center;verticalAlign=middle;whiteSpace=wrap;rounded=0;" parent="1" vertex="1">
          <mxGeometry x="670" y="1320" width="50" height="20" as="geometry" />
        </mxCell>
        <mxCell id="8WBUeJ8e2ZMxS5DKSKpC-96" value="[Result OK]" style="text;html=1;strokeColor=none;fillColor=none;align=center;verticalAlign=middle;whiteSpace=wrap;rounded=0;fontSize=13;" parent="1" vertex="1">
          <mxGeometry x="10" y="1380" width="80" height="20" as="geometry" />
        </mxCell>
        <mxCell id="8WBUeJ8e2ZMxS5DKSKpC-98" value="warnFailure()" style="text;html=1;strokeColor=none;fillColor=none;align=center;verticalAlign=middle;whiteSpace=wrap;rounded=0;fontSize=13;" parent="1" vertex="1">
          <mxGeometry x="410" y="1480" width="170" height="20" as="geometry" />
        </mxCell>
        <mxCell id="8WBUeJ8e2ZMxS5DKSKpC-99" value="" style="endArrow=classic;html=1;rounded=0;fontSize=13;" parent="1" edge="1">
          <mxGeometry width="50" height="50" relative="1" as="geometry">
            <mxPoint x="580" y="1500" as="sourcePoint" />
            <mxPoint x="295" y="1500" as="targetPoint" />
            <Array as="points">
              <mxPoint x="440" y="1500" />
            </Array>
          </mxGeometry>
        </mxCell>
        <mxCell id="8WBUeJ8e2ZMxS5DKSKpC-100" value="" style="endArrow=classic;html=1;rounded=0;fontSize=13;dashed=1;" parent="1" edge="1">
          <mxGeometry width="50" height="50" relative="1" as="geometry">
            <mxPoint x="285" y="1520" as="sourcePoint" />
            <mxPoint x="70" y="1520" as="targetPoint" />
            <Array as="points">
              <mxPoint x="211" y="1520" />
              <mxPoint x="130" y="1520" />
            </Array>
          </mxGeometry>
        </mxCell>
        <mxCell id="8WBUeJ8e2ZMxS5DKSKpC-101" value="Display Failure" style="text;html=1;strokeColor=none;fillColor=none;align=center;verticalAlign=middle;whiteSpace=wrap;rounded=0;fontSize=13;" parent="1" vertex="1">
          <mxGeometry x="115" y="1500" width="106.25" height="20" as="geometry" />
        </mxCell>
        <mxCell id="8WBUeJ8e2ZMxS5DKSKpC-102" value="[Result FAIL]" style="text;html=1;strokeColor=none;fillColor=none;align=center;verticalAlign=middle;whiteSpace=wrap;rounded=0;fontSize=13;" parent="1" vertex="1">
          <mxGeometry x="20" y="1460" width="80" height="20" as="geometry" />
        </mxCell>
        <mxCell id="8WBUeJ8e2ZMxS5DKSKpC-103" value="" style="rounded=0;whiteSpace=wrap;html=1;fillColor=none;" parent="1" vertex="1">
          <mxGeometry x="10" y="1460" width="600" height="80" as="geometry" />
        </mxCell>
        <mxCell id="8WBUeJ8e2ZMxS5DKSKpC-104" value="" style="endArrow=classic;html=1;rounded=0;" parent="1" edge="1">
          <mxGeometry width="50" height="50" relative="1" as="geometry">
            <mxPoint x="70" y="1580" as="sourcePoint" />
            <mxPoint x="285" y="1580" as="targetPoint" />
            <Array as="points">
              <mxPoint x="180" y="1580" />
            </Array>
          </mxGeometry>
        </mxCell>
        <mxCell id="8WBUeJ8e2ZMxS5DKSKpC-105" value="exit()" style="text;html=1;strokeColor=none;fillColor=none;align=center;verticalAlign=middle;whiteSpace=wrap;rounded=0;" parent="1" vertex="1">
          <mxGeometry x="70" y="1560" width="50" height="20" as="geometry" />
        </mxCell>
        <mxCell id="8WBUeJ8e2ZMxS5DKSKpC-106" value="" style="endArrow=classic;html=1;rounded=0;" parent="1" edge="1">
          <mxGeometry width="50" height="50" relative="1" as="geometry">
            <mxPoint x="295" y="1610" as="sourcePoint" />
            <mxPoint x="580" y="1610" as="targetPoint" />
            <Array as="points">
              <mxPoint x="410" y="1610" />
            </Array>
          </mxGeometry>
        </mxCell>
        <mxCell id="8WBUeJ8e2ZMxS5DKSKpC-107" value="updateCollection(studentID, bookID, collectionID) " style="text;html=1;strokeColor=none;fillColor=none;align=center;verticalAlign=middle;whiteSpace=wrap;rounded=0;" parent="1" vertex="1">
          <mxGeometry x="300" y="1590" width="280" height="20" as="geometry" />
        </mxCell>
        <mxCell id="8WBUeJ8e2ZMxS5DKSKpC-108" value="" style="endArrow=classic;html=1;rounded=0;" parent="1" edge="1">
          <mxGeometry width="50" height="50" relative="1" as="geometry">
            <mxPoint x="590" y="1630" as="sourcePoint" />
            <mxPoint x="800" y="1630" as="targetPoint" />
            <Array as="points">
              <mxPoint x="750" y="1630" />
            </Array>
          </mxGeometry>
        </mxCell>
        <mxCell id="8WBUeJ8e2ZMxS5DKSKpC-109" value="saveUpdate(bookID, collectionID) " style="text;html=1;strokeColor=none;fillColor=none;align=center;verticalAlign=middle;whiteSpace=wrap;rounded=0;" parent="1" vertex="1">
          <mxGeometry x="590" y="1610" width="200" height="20" as="geometry" />
        </mxCell>
        <mxCell id="8WBUeJ8e2ZMxS5DKSKpC-110" value="alt" style="shape=umlFrame;whiteSpace=wrap;html=1;pointerEvents=0;strokeColor=#000000;fontSize=13;width=40;height=20;" parent="1" vertex="1">
          <mxGeometry x="10" y="1680" width="600" height="100" as="geometry" />
        </mxCell>
        <mxCell id="8WBUeJ8e2ZMxS5DKSKpC-111" value="confirmUpdate()" style="text;html=1;strokeColor=none;fillColor=none;align=center;verticalAlign=middle;whiteSpace=wrap;rounded=0;fontSize=13;" parent="1" vertex="1">
          <mxGeometry x="410" y="1720" width="170" height="20" as="geometry" />
        </mxCell>
        <mxCell id="8WBUeJ8e2ZMxS5DKSKpC-112" value="" style="endArrow=classic;html=1;rounded=0;fontSize=13;" parent="1" edge="1">
          <mxGeometry width="50" height="50" relative="1" as="geometry">
            <mxPoint x="580" y="1740" as="sourcePoint" />
            <mxPoint x="295" y="1740" as="targetPoint" />
            <Array as="points">
              <mxPoint x="440" y="1740" />
            </Array>
          </mxGeometry>
        </mxCell>
        <mxCell id="8WBUeJ8e2ZMxS5DKSKpC-113" value="" style="endArrow=classic;html=1;rounded=0;fontSize=13;dashed=1;" parent="1" edge="1">
          <mxGeometry width="50" height="50" relative="1" as="geometry">
            <mxPoint x="285" y="1760" as="sourcePoint" />
            <mxPoint x="70" y="1760" as="targetPoint" />
            <Array as="points">
              <mxPoint x="211" y="1760" />
              <mxPoint x="130" y="1760" />
            </Array>
          </mxGeometry>
        </mxCell>
        <mxCell id="8WBUeJ8e2ZMxS5DKSKpC-114" value="Exit Notation Interface" style="text;html=1;strokeColor=none;fillColor=none;align=center;verticalAlign=middle;whiteSpace=wrap;rounded=0;fontSize=13;" parent="1" vertex="1">
          <mxGeometry x="100" y="1740" width="145" height="20" as="geometry" />
        </mxCell>
        <mxCell id="8WBUeJ8e2ZMxS5DKSKpC-115" value="" style="endArrow=classic;html=1;rounded=0;dashed=1;" parent="1" edge="1">
          <mxGeometry width="50" height="50" relative="1" as="geometry">
            <mxPoint x="800" y="1660" as="sourcePoint" />
            <mxPoint x="590" y="1660" as="targetPoint" />
            <Array as="points">
              <mxPoint x="700" y="1660" />
            </Array>
          </mxGeometry>
        </mxCell>
        <mxCell id="8WBUeJ8e2ZMxS5DKSKpC-116" value="Result" style="text;html=1;strokeColor=none;fillColor=none;align=center;verticalAlign=middle;whiteSpace=wrap;rounded=0;" parent="1" vertex="1">
          <mxGeometry x="670" y="1640" width="50" height="20" as="geometry" />
        </mxCell>
        <mxCell id="8WBUeJ8e2ZMxS5DKSKpC-117" value="[Result OK]" style="text;html=1;strokeColor=none;fillColor=none;align=center;verticalAlign=middle;whiteSpace=wrap;rounded=0;fontSize=13;" parent="1" vertex="1">
          <mxGeometry x="10" y="1700" width="80" height="20" as="geometry" />
        </mxCell>
        <mxCell id="8WBUeJ8e2ZMxS5DKSKpC-118" value="warnFailure()" style="text;html=1;strokeColor=none;fillColor=none;align=center;verticalAlign=middle;whiteSpace=wrap;rounded=0;fontSize=13;" parent="1" vertex="1">
          <mxGeometry x="410" y="1800" width="170" height="20" as="geometry" />
        </mxCell>
        <mxCell id="8WBUeJ8e2ZMxS5DKSKpC-119" value="" style="endArrow=classic;html=1;rounded=0;fontSize=13;" parent="1" edge="1">
          <mxGeometry width="50" height="50" relative="1" as="geometry">
            <mxPoint x="580" y="1820" as="sourcePoint" />
            <mxPoint x="295" y="1820" as="targetPoint" />
            <Array as="points">
              <mxPoint x="440" y="1820" />
            </Array>
          </mxGeometry>
        </mxCell>
        <mxCell id="8WBUeJ8e2ZMxS5DKSKpC-120" value="" style="endArrow=classic;html=1;rounded=0;fontSize=13;dashed=1;" parent="1" edge="1">
          <mxGeometry width="50" height="50" relative="1" as="geometry">
            <mxPoint x="285" y="1840" as="sourcePoint" />
            <mxPoint x="70" y="1840" as="targetPoint" />
            <Array as="points">
              <mxPoint x="211" y="1840" />
              <mxPoint x="130" y="1840" />
            </Array>
          </mxGeometry>
        </mxCell>
        <mxCell id="8WBUeJ8e2ZMxS5DKSKpC-123" value="" style="rounded=0;whiteSpace=wrap;html=1;fillColor=none;" parent="1" vertex="1">
          <mxGeometry x="10" y="1780" width="600" height="80" as="geometry" />
        </mxCell>
        <mxCell id="8WBUeJ8e2ZMxS5DKSKpC-121" value="Display Failure to Save" style="text;html=1;strokeColor=none;fillColor=none;align=center;verticalAlign=middle;whiteSpace=wrap;rounded=0;fontSize=13;" parent="1" vertex="1">
          <mxGeometry x="96.88" y="1820" width="155" height="20" as="geometry" />
        </mxCell>
        <mxCell id="8WBUeJ8e2ZMxS5DKSKpC-122" value="[Result FAIL]" style="text;html=1;strokeColor=none;fillColor=none;align=center;verticalAlign=middle;whiteSpace=wrap;rounded=0;fontSize=13;" parent="1" vertex="1">
          <mxGeometry x="20" y="1780" width="80" height="20" as="geometry" />
        </mxCell>
        <mxCell id="fCjNDRdymDhb6TnAWpX7-33" value="" style="endArrow=none;dashed=1;html=1;rounded=0;fontSize=13;" parent="1" edge="1">
          <mxGeometry width="50" height="50" relative="1" as="geometry">
            <mxPoint x="65" y="1900" as="sourcePoint" />
            <mxPoint x="65" y="1880" as="targetPoint" />
            <Array as="points" />
          </mxGeometry>
        </mxCell>
      </root>
    </mxGraphModel>
  </diagram>
</mxfile>
